<svg width="79" height="79" viewBox="0 0 79 79" fill="none" xmlns="http://www.w3.org/2000/svg">
<circle cx="39.5" cy="39.5" r="39.5" fill="#2B2D42"/>
<path d="M20 18.0306V59.3566H27.8333V23.5385L43.5 59.3566H51.3333V18.0306H43.5C43.5 18.0306 43.5 45.6466 43.5 45.5813C43.5 45.5159 27.8333 18.0306 27.8333 18.0306H20Z" fill="white"/>
<path d="M51.2964 18L66.9999 18.0306V24.5505C66.9999 24.5505 51.3333 21.726 51.3333 21.6058C51.3333 21.4855 51.3333 18.0906 51.2964 18Z" fill="white"/>
<path d="M51.3566 31.642C51.3566 31.642 60.9119 31.806 60.972 31.806C61.032 31.806 60.972 37.4715 60.972 37.4715L51.3333 37.3513C51.3333 37.3513 51.213 31.806 51.3566 31.642Z" fill="white"/>
</svg>
